:SAMPLES-PER-SECOND 30
:FULLY-SPECIFIED
:DEGREES
461
root  11.8717 36.519 -3.82498 -117.734 -83.9155 114.461
RightUpLeg  -4.77687 3.74883 -13.7629
RightLeg  46.6039 -19.5325 -21.0302
RightFoot  -21.9379 1.40727 16.4295
RightToes  1.16414e-010 0 -3.6325e-017
Spine  22.2934 -2.88751 0.0739492
Spine1  -0.19547 -2.00976 -4.55484
HEad  -25.7669 15.7173 -7.36444
LeftShoulder1  0.458029 0.0885796 -5.6197
LeftArm  -40.6737 -2.92779 -14.6043
LeftForeArm  -82.9101 -11.2885 1.1802
LeftHand  -0.0559855 4.63291 5.48611
RightShoulder  2.13525 4.26836 21.1867
RightArm  40.2765 -23.0303 53.6168
RightForeArm  19.2076 17.7415 9.14256
RightHand  -0.109332 -4.2858 -10.047
LeftUpLeg  -16.7567 -7.35951 20.8692
LeftLeg  32.4298 -4.4491 -2.71821
LeftFoot  3.78971 3.51872 -26.5889
LeftToes  7.09373e-011 9.9627e-011 8.96859e-012
462
root  11.3414 36.8174 -2.06677 -129.9 -81.0577 127.568
RightUpLeg  -6.35529 6.69546 -17.832
RightLeg  45.7573 -19.0009 -19.9417
RightFoot  -17.6918 0.40726 9.52876
RightToes  1.16414e-010 0 -3.6325e-017
Spine  19.873 -1.87573 0.241781
Spine1  -1.18938 -0.846571 -6.87924
HEad  -22.2571 14.873 -7.54922
LeftShoulder1  0.595434 -0.484889 -7.34059
LeftArm  -36.642 1.74779 -18.0624
LeftForeArm  -76.3693 -13.3675 -1.13965
LeftHand  -0.0586314 4.6451 6.15552
RightShoulder  2.01167 3.96309 20.6186
RightArm  32.8601 -22.7692 51.5997
RightForeArm  13.1512 17.994 8.82973
RightHand  -0.158758 -3.42177 -8.57066
LeftUpLeg  -11.0766 -1.55006 16.6702
LeftLeg  26.4723 -4.36277 -1.99767
LeftFoot  -3.7949 2.28367 -32.5667
LeftToes  7.09373e-011 9.9627e-011 8.96859e-012
463
root  11.0551 36.9377 -0.616755 -131.691 -78.1437 128.876
RightUpLeg  -9.44861 9.94459 -20.8054
RightLeg  51.5493 -13.4903 -17.676
RightFoot  -15.0144 0.0234585 4.19129
RightToes  1.16414e-010 0 -3.6325e-017
Spine  20.1739 -0.65291 -2.6518
Spine1  -3.18204 -0.614497 -6.06716
HEad  -19.3107 14.7662 -8.26876
LeftShoulder1  0.654268 -0.44203 -9.1894
LeftArm  -32.8593 6.53607 -21.2557
LeftForeArm  -69.7591 -15.6812 -3.59773
LeftHand  -0.0400773 5.04859 6.50866
RightShoulder  1.89011 3.6344 20.1255
RightArm  27.5235 -22.0598 50.1077
RightForeArm  6.52562 19.9712 6.95579
RightHand  -0.158883 -3.02361 -7.20312
LeftUpLeg  -7.79011 3.87583 12.1178
LeftLeg  24.2031 -5.66479 -2.44459
LeftFoot  -9.10488 0.630274 -28.7706
LeftToes  7.09373e-011 9.9627e-011 8.96859e-012
464
root  10.918 36.9725 0.529296 -127.487 -76.9287 123.205
RightUpLeg  -13.2077 10.9301 -21.283
RightLeg  64.6123 -7.04687 -16.493
RightFoot  -13.6584 -0.0446867 2.48699
RightToes  1.16414e-010 0 -3.6325e-017
Spine  20.9899 -0.176363 -6.46562
Spine1  -3.28629 -1.53414 -2.54574
HEad  -18.6117 14.81 -9.37857
LeftShoulder1  0.70257 -0.293845 -11.2884
LeftArm  -28.5792 10.264 -23.9277
LeftForeArm  -64.2492 -17.9685 -5.57909
LeftHand  -0.0341321 5.16565 6.61089
RightShoulder  1.7946 3.26983 20.1475
RightArm  20.4317 -20.1349 49.9123
RightForeArm  3.71851 23.2713 5.00343
RightHand  -0.18554 -2.944 -8.26721
LeftUpLeg  -6.31807 3.07102 7.99504
LeftLeg  24.515 -4.41621 -1.8385
LeftFoot  -11.3372 0.0605593 -23.6444
LeftToes  7.09373e-011 9.9627e-011 8.96859e-012
465
root  10.7801 36.9686 1.42325 -124.109 -77.296 118.633
RightUpLeg  -16.9465 8.7017 -18.5953
RightLeg  80.0184 -2.23686 -17.6954
RightFoot  -12.5891 -0.0525117 3.15213
RightToes  1.16414e-010 0 -3.6325e-017
Spine  20.0535 -0.426983 -8.30301
Spine1  -0.47385 -2.63663 0.0472728
HEad  -19.6545 14.4322 -10.3023
LeftShoulder1  0.829515 -0.612911 -13.1132
LeftArm  -24.0442 12.5014 -26.6723
LeftForeArm  -59.906 -19.9621 -6.65106
LeftHand  -0.0508152 4.8359 6.5153
RightShoulder  1.72934 2.9044 20.6788
RightArm  10.3364 -17.2077 51.1595
RightForeArm  6.64133 27.2777 5.48804
RightHand  -0.256872 -2.97528 -11.8141
LeftUpLeg  -5.70504 -1.94169 5.31106
LeftLeg  25.7839 -0.829731 -0.0748036
LeftFoot  -13.5092 -0.352506 -22.4113
LeftToes  7.09373e-011 9.9627e-011 8.96859e-012
466
root  10.5871 37.0153 2.18209 -127.582 -77.962 121.515
RightUpLeg  -20.4853 5.20979 -13.7152
RightLeg  92.8717 1.86105 -18.3351
RightFoot  -11.4599 -0.0727455 4.58336
RightToes  1.16414e-010 0 -3.6325e-017
Spine  18.0324 -0.697818 -7.49761
Spine1  2.53104 -2.86783 0.352558
HEad  -19.8923 13.9012 -10.4999
LeftShoulder1  1.01559 -1.30407 -14.2052
LeftArm  -19.4634 14.0648 -30.001
LeftForeArm  -55.9501 -21.0573 -7.06128
LeftHand  -0.0618173 4.53683 5.7441
RightShoulder  1.68406 2.64497 21.111
RightArm  5.72022 -14.499 53.4246
RightForeArm  7.67509 31.3283 6.44776
RightHand  -0.380992 -2.85723 -16.9479
LeftUpLeg  -5.21918 -4.51065 4.43412
LeftLeg  27.2067 1.45411 1.16918
LeftFoot  -16.1054 -0.83538 -22.1815
LeftToes  7.09373e-011 9.9627e-011 8.96859e-012
467
root  10.3836 37.0724 2.83035 -135.076 -77.0703 128.4
RightUpLeg  -23.834 2.09829 -9.54143
RightLeg  102.502 4.40383 -15.4491
RightFoot  -10.1208 -0.117777 4.7795
RightToes  1.16414e-010 0 -3.6325e-017
Spine  16.9611 -0.270631 -6.79234
Spine1  3.09773 -2.19857 -0.530192
HEad  -17.9348 13.7892 -9.92023
LeftShoulder1  1.16321 -1.84246 -14.9016
LeftArm  -14.177 15.6973 -33.6057
LeftForeArm  -52.2108 -20.9515 -7.33986
LeftHand  -0.0554668 4.49403 4.58416
RightShoulder  1.67167 2.60164 21.1045
RightArm  6.95318 -12.7018 55.6676
RightForeArm  7.91563 34.8222 7.35755
RightHand  -0.549536 -2.42507 -21.365
LeftUpLeg  -4.28615 -3.00392 3.60243
LeftLeg  28.2096 1.58445 1.28851
LeftFoot  -17.612 -1.05333 -20.9179
LeftToes  7.09373e-011 9.9627e-011 8.96859e-012
468
root  10.1744 37.0556 3.38121 -139.073 -74.5937 131.319
RightUpLeg  -26.5319 -0.654113 -8.37611
RightLeg  109.153 5.20168 -12.21
RightFoot  -8.53589 -0.165209 4.32744
RightToes  1.16414e-010 0 -3.6325e-017
Spine  16.9179 0.627193 -7.78412
Spine1  2.32116 -1.40302 -1.66934
HEad  -15.0561 14.0461 -8.99041
LeftShoulder1  1.24082 -1.99719 -15.7768
LeftArm  -8.38952 17.214 -37.1275
LeftForeArm  -48.3832 -20.2285 -7.78797
LeftHand  -0.0557583 4.44523 4.34557
RightShoulder  1.69124 2.71469 20.9066
RightArm  11.2383 -11.3103 57.3633
RightForeArm  10.0414 38.4003 8.26902
RightHand  -0.619421 -2.1767 -22.094
LeftUpLeg  -2.65143 -0.398009 1.51749
LeftLeg  28.6302 1.2933 1.14122
LeftFoot  -18.1823 -1.11517 -20.2691
LeftToes  7.09373e-011 9.9627e-011 8.96859e-012
469
root  9.86301 37.0898 3.86491 -141.549 -72.6261 132.557
RightUpLeg  -27.9579 -2.79201 -9.64312
RightLeg  111.574 5.74195 -12.0927
RightFoot  -7.5073 -0.217999 4.97581
RightToes  1.16414e-010 0 -3.6325e-017
Spine  16.41 1.14001 -8.19728
Spine1  2.58499 -0.839137 -3.03933
HEad  -13.0494 14.2731 -8.25121
LeftShoulder1  1.29804 -1.98669 -16.9534
LeftArm  -3.6228 18.1612 -40.7536
LeftForeArm  -43.0682 -19.3988 -8.33501
LeftHand  -0.071286 4.22849 5.28251
RightShoulder  1.68681 2.74077 20.7073
RightArm  16.3642 -9.48475 58.6574
RightForeArm  14.9991 42.2192 9.17242
RightHand  -0.576661 -1.91554 -19.0961
LeftUpLeg  -0.309651 0.965661 -0.469203
LeftLeg  28.0168 1.9363 1.49844
LeftFoot  -18.7703 -1.24062 -20.6309
LeftToes  7.09373e-011 9.9627e-011 8.96859e-012
470
root  9.43487 37.2714 4.22663 -146.371 -72.3107 136.451
RightUpLeg  -28.3507 -3.23059 -11.7556
RightLeg  109.11 5.61682 -13.3313
RightFoot  -6.88711 -0.253579 5.34047
RightToes  1.16414e-010 0 -3.6325e-017
Spine  15.3263 1.06823 -6.41018
Spine1  3.59878 -0.366815 -4.44175
HEad  -11.916 14.3042 -7.81124
LeftShoulder1  1.39958 -2.1517 -18.1479
LeftArm  -1.20334 18.664 -44.7606
LeftForeArm  -34.9676 -17.8812 -9.17358
LeftHand  -0.0852143 3.97335 5.63285
RightShoulder  1.63381 2.61566 20.3715
RightArm  21.2893 -7.5783 59.8802
RightForeArm  21.601 45.3011 9.80197
RightHand  -0.639992 -0.6124 -15.562
LeftUpLeg  2.29135 1.23631 -0.651887
LeftLeg  26.6611 2.95874 2.06982
LeftFoot  -19.3163 -1.33104 -20.5501
LeftToes  7.09373e-011 9.9627e-011 8.96859e-012
471
root  8.98276 37.5045 4.42273 -152.638 -73.0398 142.075
RightUpLeg  -28.0662 -2.00919 -14.2902
RightLeg  102.373 3.97416 -13.8717
RightFoot  -6.02382 -0.229442 4.06484
RightToes  1.16414e-010 0 -3.6325e-017
Spine  14.705 0.858926 -3.85731
Spine1  3.6055 0.0239096 -5.33435
HEad  -10.6254 14.0954 -7.23499
LeftShoulder1  1.56335 -2.60513 -19.064
LeftArm  -1.15328 19.0709 -49.0487
LeftForeArm  -25.5588 -15.0335 -10.771
LeftHand  -0.0814428 3.6708 4.37819
RightShoulder  1.60007 2.57743 19.957
RightArm  24.5786 -6.73733 61.1909
RightForeArm  26.1626 46.5543 9.94613
RightHand  -0.810285 1.60404 -13.5678
LeftUpLeg  4.61071 1.15126 0.591452
LeftLeg  25.3818 3.27394 2.31136
LeftFoot  -19.3993 -1.29679 -19.8723
LeftToes  7.09373e-011 9.9627e-011 8.96859e-012
472
root  8.56029 37.6597 4.47061 -157.594 -74.0014 146.54
RightUpLeg  -26.9149 -0.305305 -17.5069
RightLeg  92.4451 1.44163 -15.017
RightFoot  -5.68721 -0.18124 2.87329
RightToes  1.16414e-010 0 -3.6325e-017
Spine  14.63 0.760969 -2.11717
Spine1  2.59707 0.307684 -5.92966
HEad  -9.06876 13.5003 -6.12828
LeftShoulder1  1.74207 -3.16953 -19.6227
LeftArm  -2.81765 19.3714 -53.1915
LeftForeArm  -19.7441 -11.4816 -12.6777
LeftHand  -0.0695507 3.69043 3.61891
RightShoulder  1.63758 2.73742 19.873
RightArm  24.5279 -7.27084 62.5011
RightForeArm  24.952 45.541 9.65971
RightHand  -0.803702 3.9852 -10.2853
LeftUpLeg  6.42816 0.628081 1.8869
LeftLeg  24.5228 3.2989 2.41568
LeftFoot  -19.3732 -1.27575 -19.6438
LeftToes  7.09373e-011 9.9627e-011 8.96859e-012
473
root  8.15048 37.7004 4.38059 -161.069 -74.8584 149.766
RightUpLeg  -24.809 1.31515 -20.8936
RightLeg  80.0977 -2.25972 -17.2853
RightFoot  -6.45103 -0.140938 2.25251
RightToes  1.16414e-010 0 -3.6325e-017
Spine  14.2604 0.821263 -1.09744
Spine1  1.93449 0.674618 -6.78888
HEad  -8.05843 12.4586 -4.64779
LeftShoulder1  1.85229 -3.51798 -19.9184
LeftArm  -6.95987 19.5596 -56.4563
LeftForeArm  -20.6894 -8.28162 -13.7523
LeftHand  -0.0563043 4.64462 5.77404
RightShoulder  1.68539 2.83793 20.2387
RightArm  20.7531 -8.60972 63.3683
RightForeArm  17.3134 42.7847 9.21079
RightHand  -0.222508 5.98727 -2.45404
LeftUpLeg  7.73004 0.00772799 2.9415
LeftLeg  24.0929 3.53729 2.71416
LeftFoot  -19.7475 -1.35163 -19.8173
LeftToes  7.09373e-011 9.9627e-011 8.96859e-012
474
root  7.74917 37.6975 4.13486 -165.129 -75.6421 153.857
RightUpLeg  -21.5841 3.3023 -23.2779
RightLeg  65.0684 -6.80869 -16.4529
RightFoot  -7.05432 -0.0977435 1.40173
RightToes  1.16414e-010 0 -3.6325e-017
Spine  13.4809 1.06429 -0.370388
Spine1  1.91973 1.18328 -7.22679
HEad  -7.99552 11.1552 -3.26409
LeftShoulder1  1.8336 -3.40068 -20.108
LeftArm  -13.7826 20.0826 -58.0317
LeftForeArm  -27.5452 -6.20958 -13.1495
LeftHand  0.00912758 5.78517 9.14111
RightShoulder  1.67528 2.69325 20.7323
RightArm  14.3152 -10.6035 62.9146
RightForeArm  4.77074 39.4845 8.93414
RightHand  0.666264 5.95936 6.5286
LeftUpLeg  8.65544 -0.821571 4.32982
LeftLeg  23.8728 3.80727 2.96031
LeftFoot  -20.118 -1.42755 -19.9834
LeftToes  7.09373e-011 9.9627e-011 8.96859e-012
